HIERARCHY
ROOT GLTF_created_5_rootJoint
{
	OFFSET 0.000001 -0.000001 2.772804
	CHANNELS 6 Xposition Yposition Zposition Xrotation Yrotation Zrotation
	JOINT Bip001_176
	{
		OFFSET -3.294814 -0.859898 2.885366
		CHANNELS 6 Xposition Yposition Zposition Xrotation Yrotation Zrotation
		JOINT Bip001 Pelvis_177
		{
			OFFSET 2.813947 0.000004 0.000001
			CHANNELS 6 Xposition Yposition Zposition Xrotation Yrotation Zrotation
			JOINT Bip001 Spine_178
			{
				OFFSET 0.000000 -0.000760 0.718798
				CHANNELS 6 Xposition Yposition Zposition Xrotation Yrotation Zrotation
				JOINT Bip001 Spine1_193
				{
					OFFSET 0.000000 -0.000100 0.955110
					CHANNELS 6 Xposition Yposition Zposition Xrotation Yrotation Zrotation
					JOINT Bip001 Neck_194
					{
						OFFSET 0.000000 0.000241 1.429951
						CHANNELS 6 Xposition Yposition Zposition Xrotation Yrotation Zrotation
						JOINT Bip001 R Clavicle_203
						{
							OFFSET 0.296234 0.000619 -0.349928
							CHANNELS 6 Xposition Yposition Zposition Xrotation Yrotation Zrotation
							JOINT Bip001 R UpperArm_204
							{
								OFFSET 0.938765 0.000001 0.000001
								CHANNELS 6 Xposition Yposition Zposition Xrotation Yrotation Zrotation
								JOINT Bip001 R Forearm_205
								{
									OFFSET 2.873482 -0.100144 -0.001595
									CHANNELS 6 Xposition Yposition Zposition Xrotation Yrotation Zrotation
									JOINT Bip001 R Hand_206
									{
										OFFSET 2.303203 0.063001 -0.002708
										CHANNELS 6 Xposition Yposition Zposition Xrotation Yrotation Zrotation
										End Site
										{
											OFFSET 2.303200 0.063000 -0.002709
										}
									}
								}
							}
						}
						JOINT Bip001 L Clavicle_197
						{
							OFFSET -0.296234 0.000619 -0.349927
							CHANNELS 6 Xposition Yposition Zposition Xrotation Yrotation Zrotation
							JOINT Bip001 L UpperArm_198
							{
								OFFSET -0.917744 -0.000001 -0.000001
								CHANNELS 6 Xposition Yposition Zposition Xrotation Yrotation Zrotation
								JOINT Bip001 L Forearm_199
								{
									OFFSET -2.835649 -0.009101 -0.053201
									CHANNELS 6 Xposition Yposition Zposition Xrotation Yrotation Zrotation
									JOINT Bip001 L Hand_200
									{
										OFFSET -2.429367 -0.003952 -0.045617
										CHANNELS 6 Xposition Yposition Zposition Xrotation Yrotation Zrotation
										End Site
										{
											OFFSET -2.429362 -0.003952 -0.045617
										}
									}
								}
							}
						}
						JOINT Bip001 Head_195
						{
							OFFSET 0.000000 0.000619 1.184894
							CHANNELS 6 Xposition Yposition Zposition Xrotation Yrotation Zrotation
							End Site
							{
								OFFSET -0.000001 -0.000000 0.458479
							}
						}
					}
				}
				JOINT Bip001 R Thigh_186
				{
					OFFSET 0.827130 0.000761 -0.718799
					CHANNELS 6 Xposition Yposition Zposition Xrotation Yrotation Zrotation
					JOINT Bip001 R Calf_187
					{
						OFFSET -0.000001 -0.015873 -2.979393
						CHANNELS 6 Xposition Yposition Zposition Xrotation Yrotation Zrotation
						JOINT Bip001 R Foot_188
						{
							OFFSET 0.000000 -0.049549 -2.865817
							CHANNELS 6 Xposition Yposition Zposition Xrotation Yrotation Zrotation
							End Site
							{
								OFFSET -0.000001 0.000001 -2.866242
							}
						}
					}
				}
				JOINT Bip001 L Thigh_179
				{
					OFFSET -0.827131 0.000760 -0.718800
					CHANNELS 6 Xposition Yposition Zposition Xrotation Yrotation Zrotation
					JOINT Bip001 L Calf_180
					{
						OFFSET 0.109557 0.030316 -2.863991
						CHANNELS 6 Xposition Yposition Zposition Xrotation Yrotation Zrotation
						JOINT Bip001 L Foot_181
						{
							OFFSET 0.109503 -0.019502 -2.864087
							CHANNELS 6 Xposition Yposition Zposition Xrotation Yrotation Zrotation
							End Site
							{
								OFFSET -0.000001 0.000001 -2.866243
							}
						}
					}
				}
			}
		}
	}
}
MOTION
Frames: 6
Frame Time: 0.041667
0.000001 -0.000001 2.772804 -0.000000 0.000000 -0.000000 -0.886253 1.225660 3.575488 5.887452 6.251243 -136.789209 2.884963 0.020736 0.000002 0.000018 -0.027586 -0.000274 0.000379 -0.000758 0.718740 4.613107 -3.472880 2.449646 -0.000011 -0.000087 0.955252 -9.639224 -0.721301 -0.772735 0.000000 0.000241 1.429953 0.000001 -0.000001 0.000002 0.296234 0.000619 -0.349928 0.914239 -6.454516 8.074783 0.938767 0.000002 -0.000002 -56.334058 82.582103 32.062923 2.873482 -0.100145 -0.001597 -0.372675 0.590235 74.881468 2.303205 0.063000 -0.002711 -25.155431 -2.507681 -21.797587 -0.296235 0.000618 -0.349928 0.390383 13.872151 -1.628313 -0.917746 -0.000001 -0.000001 -73.695774 -95.010848 -43.618261 -2.835648 -0.009100 -0.053201 0.646397 -1.133226 -64.699862 -2.429365 -0.003952 -0.045617 -2.358604 5.316302 1.321060 0.000000 0.000618 1.184893 30.290021 3.761433 -5.363082 0.778678 -0.090414 -0.765217 11.328987 -6.477977 -25.833208 -0.000000 -0.015873 -2.979392 -25.961506 -0.000029 0.000002 -0.000001 -0.049549 -2.865816 13.050199 5.835207 -10.409463 -0.871036 -0.019839 -0.665022 4.010781 2.151917 9.266521 0.109557 0.030316 -2.863992 -13.875829 0.079671 -0.523560 0.109504 -0.019502 -2.864087 13.124248 2.536634 2.592940 
0.000001 -0.000001 2.772804 -0.000000 0.000000 -0.000000 -0.864961 1.228588 3.541951 5.031608 4.814869 -136.498448 2.890507 -0.007272 0.000002 0.000019 -0.076823 -0.000620 0.000994 -0.000759 0.718753 3.570621 -3.442136 2.253963 -0.000003 -0.000084 0.955273 -11.052576 -1.507548 -0.234058 0.000000 0.000241 1.429952 -0.000001 -0.000001 -0.000003 0.296235 0.000618 -0.349927 0.764210 -5.780980 7.541089 0.938768 0.000001 -0.000001 -55.266749 82.664072 32.915624 2.873482 -0.100143 -0.001595 -0.371014 0.589616 74.704600 2.303206 0.062999 -0.002710 -24.658742 -2.695019 -21.746475 -0.296234 0.000618 -0.349926 0.430660 13.444946 -1.852208 -0.917745 -0.000002 -0.000002 -83.266447 -95.837075 -56.081327 -2.835649 -0.009098 -0.053201 0.647676 -1.083515 -62.362373 -2.429366 -0.003952 -0.045618 -2.768811 5.683706 -3.834604 0.000001 0.000617 1.184893 33.686421 3.932106 -6.016914 0.779235 -0.074709 -0.765687 12.497144 -7.923164 -25.739382 -0.000000 -0.015874 -2.979393 -29.617548 -0.000033 0.000001 -0.000002 -0.049549 -2.865817 14.137504 5.938680 -10.041845 -0.870763 -0.009766 -0.666378 3.379952 1.592562 9.603337 0.109557 0.030316 -2.863991 -13.776953 0.078657 -0.519913 0.109504 -0.019502 -2.864087 14.319900 2.605601 2.340220 
0.000001 -0.000001 2.772804 -0.000000 0.000000 -0.000000 -0.843020 1.232290 3.509192 4.163989 3.331624 -136.276194 2.896209 -0.035509 0.000002 0.000017 -0.109947 0.000034 0.001407 -0.000760 0.718765 2.521562 -3.455178 2.063524 0.000003 -0.000079 0.955295 -12.491298 -2.252985 0.182795 0.000001 0.000242 1.429950 0.000001 0.000000 -0.000002 0.296234 0.000619 -0.349928 0.700772 -5.396837 7.409545 0.938768 0.000001 -0.000001 -37.549385 84.748871 16.162217 2.873482 -0.100143 -0.001597 -0.366781 0.588016 74.252605 2.303206 0.063001 -0.002710 -22.982444 -2.490728 -21.689343 -0.296235 0.000618 -0.349926 0.518051 13.301567 -2.250688 -0.917745 -0.000002 -0.000000 -89.844916 -97.393170 -65.740161 -2.835648 -0.009100 -0.053201 0.647431 -1.051518 -60.858481 -2.429366 -0.003952 -0.045618 -2.606033 6.124326 -7.459223 0.000001 0.000618 1.184893 36.477110 3.972873 -6.571378 0.779325 -0.058962 -0.766544 13.576031 -9.342774 -25.649928 -0.000001 -0.015873 -2.979393 -33.094025 -0.000035 -0.000000 -0.000001 -0.049549 -2.865818 15.037954 6.048578 -9.583129 -0.870858 0.000493 -0.666856 3.298366 1.123725 9.869504 0.109557 0.030316 -2.863990 -14.775847 0.089184 -0.556644 0.109504 -0.019502 -2.864087 15.674196 2.723224 2.218811 
0.000001 -0.000001 2.772804 -0.000000 0.000000 -0.000000 -0.821945 1.234960 3.478342 3.311581 1.862131 -136.057792 2.902339 -0.064440 0.000003 0.000017 -0.089363 -0.000333 0.001146 -0.000760 0.718780 1.456328 -3.593512 1.881663 0.000005 -0.000074 0.955318 -14.004191 -2.876477 0.336304 0.000001 0.000241 1.429953 0.000002 0.000001 -0.000002 0.296234 0.000619 -0.349924 0.686030 -5.154406 7.591630 0.938769 0.000001 0.000001 15.364729 86.076469 -36.497423 2.873483 -0.100143 -0.001596 -0.359974 0.585368 73.523735 2.303206 0.063000 -0.002709 -20.521881 -1.972111 -21.612375 -0.296235 0.000619 -0.349925 0.723773 13.525735 -3.091928 -0.917746 -0.000001 -0.000004 -91.630533 -100.573074 -70.402455 -2.835648 -0.009100 -0.053202 0.647253 -1.044049 -60.507239 -2.429365 -0.003952 -0.045618 -1.642971 6.544952 -8.488738 0.000000 0.000618 1.184896 38.489366 3.810821 -6.539647 0.778328 -0.043087 -0.768924 14.105150 -10.162157 -25.038785 -0.000001 -0.015874 -2.979393 -35.255456 -0.000037 -0.000002 -0.000001 -0.049549 -2.865817 16.269917 5.924326 -9.738159 -0.871791 0.011123 -0.665243 4.228493 0.934957 9.593048 0.109557 0.030316 -2.863991 -17.578265 0.122122 -0.658679 0.109504 -0.019502 -2.864086 17.130698 2.783288 2.173302 
0.000001 -0.000001 2.772804 -0.000000 0.000000 -0.000000 -0.803903 1.234019 3.450842 2.515592 0.487783 -135.750338 2.909407 -0.103253 0.000001 -0.000041 0.032832 0.000022 -0.000390 -0.000761 0.718800 0.029736 -3.963111 1.709484 0.000001 -0.000066 0.955348 -16.078509 -3.299469 0.062060 0.000000 0.000241 1.429952 -0.000004 0.000000 -0.000003 0.296234 0.000619 -0.349925 0.696703 -5.061591 7.847527 0.938767 0.000001 -0.000001 60.845859 82.927253 -80.930563 2.873481 -0.100144 -0.001596 -0.353361 0.582696 72.812248 2.303204 0.063000 -0.002709 -17.691143 -1.385785 -21.601551 -0.296235 0.000618 -0.349925 1.060896 13.981606 -4.379584 -0.917745 -0.000001 -0.000002 -89.699174 -105.624340 -71.667099 -2.835649 -0.009101 -0.053201 0.647471 -1.053488 -60.950996 -2.429366 -0.003952 -0.045617 -0.120482 6.933111 -7.402625 0.000000 0.000618 1.184895 39.731955 3.606765 -6.287836 0.775524 -0.022746 -0.774230 16.401851 -11.054270 -23.535517 -0.000001 -0.015873 -2.979393 -39.394892 -0.000039 -0.000004 -0.000001 -0.049549 -2.865818 16.266586 5.614982 -10.543809 -0.874040 0.026460 -0.659912 5.580226 0.947265 8.757989 0.109557 0.030316 -2.863991 -20.034920 0.155071 -0.746703 0.109504 -0.019502 -2.864086 18.224987 2.678620 1.979293 
0.000001 -0.000001 2.772804 -0.000000 0.000000 -0.000000 -0.790192 1.227919 3.427823 1.805992 -0.739977 -135.288917 2.916744 -0.146835 0.000002 0.000020 0.198486 0.000028 -0.002470 -0.000760 0.718817 -1.582197 -4.451520 1.529037 -0.000007 -0.000055 0.955382 -18.450907 -3.578434 -0.474892 0.000001 0.000242 1.429952 -0.000000 0.000000 -0.000004 0.296234 0.000619 -0.349928 0.718997 -5.167794 7.931976 0.938768 -0.000000 0.000000 74.401954 77.481106 -92.402836 2.873481 -0.100143 -0.001596 -0.350007 0.581303 72.449483 2.303206 0.062999 -0.002709 -14.845056 -0.995783 -21.732846 -0.296235 0.000618 -0.349926 1.399817 14.674658 -5.505721 -0.917745 -0.000002 -0.000000 -88.245293 -110.599976 -74.586533 -2.835648 -0.009100 -0.053201 0.647697 -1.075998 -62.009273 -2.429365 -0.003952 -0.045618 1.727468 7.503444 -5.929800 0.000000 0.000618 1.184894 38.520573 3.811496 -7.201243 0.771598 0.000032 -0.780693 19.941967 -11.967039 -21.719056 -0.000001 -0.015873 -2.979393 -44.792029 -0.000043 -0.000006 -0.000002 -0.049549 -2.865816 14.692662 5.526260 -11.633871 -0.877076 0.044008 -0.652314 7.390276 1.066990 8.265162 0.109558 0.030316 -2.863991 -22.542652 0.192566 -0.835017 0.109505 -0.019502 -2.864087 18.995857 2.599304 1.982539 
